Coordinates
version=1
nRows=7
nColumns=40
inDegrees=yes

Units are S.I. units (second, meters, Newtons, ...)
Angles are in degrees.

endheader
time	pelvis_tilt	pelvis_list	pelvis_rotation	pelvis_tx	pelvis_ty	pelvis_tz	hip_flexion_r	hip_adduction_r	hip_rotation_r	knee_angle_r	knee_angle_r_beta	ankle_angle_r	subtalar_angle_r	mtp_angle_r	hip_flexion_l	hip_adduction_l	hip_rotation_l	knee_angle_l	knee_angle_l_beta	ankle_angle_l	subtalar_angle_l	mtp_angle_l	lumbar_extension	lumbar_bending	lumbar_rotation	arm_flex_r	arm_add_r	arm_rot_r	elbow_flex_r	pro_sup_r	wrist_flex_r	wrist_dev_r	arm_flex_l	arm_add_l	arm_rot_l	elbow_flex_l	pro_sup_l	wrist_flex_l	wrist_dev_l
     49.60000000	     -1.78688150	     -6.42033390	     -0.21439794	      1.05188227	      0.93748764	      0.40567889	     27.62357082	     -5.26568649	     -5.35406455	     56.89694944	     56.89694944	      0.90191204	    -14.35814950	      1.23170115	     11.13417017	     -6.21030391	     -6.89334979	     22.55735878	     22.55735878	     15.76136558	     -8.46971436	      1.87236984	    -11.67371537	      6.25674838	      1.11993166	     -1.09091434	    -12.36779423	    -10.20044091	     25.85737846	     45.42626549	      0.00000000	      0.00000000	     14.91175339	    -15.39117949	     -3.91192701	     52.01610658	     45.63039113	      0.00000000	      0.00000000
     49.61271429	     -1.97629050	     -6.59882017	     -0.37774384	      1.05020151	      0.93744896	      0.40569272	     28.15046283	     -5.00757307	     -5.60282172	     54.51794347	     54.51794347	      1.17150487	    -14.00760978	      1.30069839	     10.94335199	     -6.42289072	     -7.07558451	     22.36489058	     22.36489058	     15.92493838	     -8.28879409	      1.78007320	    -11.61304970	      6.43524799	      0.81169599	     -2.38318045	    -12.49167265	    -10.28210128	     25.38448713	     45.45124142	      0.00000000	      0.00000000	     15.57309006	    -15.70876800	     -4.14511048	     52.69696482	     45.67325132	      0.00000000	      0.00000000
     49.62542857	     -2.02339676	     -6.82264557	     -0.59478209	      1.04869068	      0.93755062	      0.40587557	     28.34233113	     -4.61844876	     -5.82127942	     51.83739542	     51.83739542	      1.26074236	    -13.70684036	      0.93040258	     10.56830069	     -6.75399700	     -7.55044397	     22.18673720	     22.18673720	     16.19291144	     -7.77307374	      1.51013462	    -11.75264561	      6.61356597	      1.06928840	     -4.00264394	    -12.66686762	    -10.54620762	     24.99929590	     45.49940957	      0.00000000	      0.00000000	     16.25332544	    -15.68062913	     -4.67447918	     54.51705300	     45.77243344	      0.00000000	      0.00000000
     49.63814286	     -2.20454340	     -6.97444845	     -0.78105388	      1.04703607	      0.93752034	      0.40589353	     28.57928946	     -4.31438287	     -6.03248068	     48.96531147	     48.96531147	      1.34983594	    -13.07748662	      0.87662784	     10.36057840	     -6.93215554	     -7.74443123	     21.97797134	     21.97797134	     16.33444150	     -7.56965249	      1.40179796	    -11.77637432	      6.81242322	      0.79834463	     -5.24099060	    -12.82842318	    -10.73065223	     24.72127281	     45.52667546	      0.00000000	      0.00000000	     16.73282052	    -15.89019712	     -5.01810573	     55.48455535	     45.83063076	      0.00000000	      0.00000000
     49.65085714	     -2.46104204	     -7.00886059	     -1.02362047	      1.04539141	      0.93728342	      0.40610142	     28.83748763	     -4.06381994	     -6.15547274	     45.98904078	     45.98904078	      1.53683143	    -12.34395858	      0.96550074	     10.22342342	     -6.99635068	     -8.02179958	     21.76398925	     21.76398925	     16.46057590	     -7.46657168	      1.32073456	    -11.68286376	      6.83252463	      0.58842786	     -6.41929272	    -12.91459475	    -10.85170909	     24.41061197	     45.54532228	      0.00000000	      0.00000000	     17.31347245	    -16.27211135	     -5.34545753	     56.27151090	     45.87969019	      0.00000000	      0.00000000
     49.66357143	     -2.51853066	     -7.15967716	     -1.25619887	      1.04407418	      0.93738674	      0.40631068	     28.61327481	     -3.70438209	     -6.44780842	     42.62572019	     42.62572019	      1.78833638	    -11.12749024	      0.79773245	      9.78098493	     -7.19052073	     -8.35285956	     21.43251117	     21.43251117	     16.62902528	     -7.15199662	      1.16565150	    -11.82770865	      7.01778144	      0.69539358	     -7.68766116	    -13.11894587	    -11.08025009	     24.22001421	     45.57221155	      0.00000000	      0.00000000	     17.79180348	    -16.16998040	     -5.79604670	     57.69677248	     45.95132992	      0.00000000	      0.00000000
     49.67628571	     -2.65746748	     -7.10697417	     -1.57617016	      1.04272177	      0.93715433	      0.40671311	     28.42639341	     -3.51218135	     -6.68393044	     39.13439195	     39.13439195	      1.57327367	     -9.79795467	     -0.87524196	      9.43920971	     -7.23366012	     -9.03047631	     21.15019105	     21.15019105	     16.75631887	     -6.53584155	      0.61866803	    -11.98995210	      6.89434228	      0.58123637	     -9.04585936	    -13.17185368	    -12.05127840	     25.15529607	     45.64753008	      0.00000000	      0.00000000	     17.52070049	    -16.14502341	     -7.35544928	     60.76885369	     46.17384708	      0.00000000	      0.00000000
